<svg id="Layer_1" data-name="Layer 1" xmlns="http://www.w3.org/2000/svg" viewBox="0 0 369.8 298.96">
  <defs>
    <style>.cls-1{fill:#eb3531;}</style>
  </defs>
  <title>box with tube</title>
  <path class="cls-1"
        d="M324.4,163.14c-1.1.3-2.2.7-3.3,1.1q-45.45,15.45-91,31c-3.1,1.1-5.1.5-7.1-2-5.1-6.6-10.5-13-15.8-19.5-4-4.9-7.8-9.9-12-14.7a4.81,4.81,0,0,0-3.7-1.4c-.8.2-1.3,2.1-1.8,3.2a6.7,6.7,0,0,0,0,2V290c0,5.8,1.1,6.6,6.5,4.4q64.05-26.55,128.2-52.9c3-1.2,4.3-2.8,4.2-6.1q.15-33.75.1-67.7V166C328.3,163.44,327,162.44,324.4,163.14Z"/>
  <path class="cls-1"
        d="M174.4,157.44c-1.5.8-3.3,1.3-4.4,2.6-9.1,10.9-18,22-26.9,33.1-2.1,2.6-4.1,3.3-7.3,2.2q-46.2-15.9-92.6-31.6c-4.4-1.5-5.8-.6-5.8,3.9,0,22.7.1,45.4,0,68.1,0,3.1,1.3,4.7,4.1,5.9q64.5,26.55,128.9,53.1c4.8,2,6,1.1,6-4v-64c0-21.6,0-43.1-.1-64.7C176.2,160.54,175,158.94,174.4,157.44Z"/>
  <path class="cls-1"
        d="M334.6,101.54a10.87,10.87,0,0,0-5.1-3.6l-7-2a9.86,9.86,0,0,0,1.8-1.71Q334.92,82,345.64,69.87c2.67-3,5.33-6.08,8-9.12s5.35-6.11,8-9.16c1-1,1.83-2.07,2.73-3.12s1.93-2.22,2.92-3.32a1.09,1.09,0,0,0,.27-.4c.09-.35-.27-.56-.53-.68-3.34-1.52-6.9-2.11-10.43-3-1.22-.29-2.44-.59-3.65-.93l-15.65-4.48-31.3-9q-31.31-9-62.59-17.95L233.73,6c-2.57-.74-3.56.29-4.77,2C223,16.45,217,24.85,211,33.28l-18.38,26-7.76-2.19-7.66,2.1c-5.87-8.3-11.62-16.45-17.38-24.57-6-8.43-12-16.84-17.92-25.3-1.21-1.71-2.2-2.74-4.76-2l-11.75,3.38-11.74,3.37L102,17.43,90.2,20.8,78.46,24.16,66.71,27.53,55,30.89,43.21,34.25,31.47,37.61,19.72,41,8.13,44.28c-1.37.37-2.72.77-4.08,1.19-.33.1-1,.15-.79.63a2.54,2.54,0,0,0,.62.69c.28.3.53.62.8.92.63.72,1.28,1.43,1.91,2.15.06.08.35.5.43.5l4,4.56L19,64l6.3,7.19Q35.7,83.1,46.13,95l-5.26,1.43L36.3,97.74a9.88,9.88,0,0,0-4.6,3.2c-7.9,10.3-15.6,20.7-23.3,31.1-2.5,3.3-2,4.8,2.1,6.2q60.45,20.55,120.9,41.2c3.1,1.1,5,.5,7.1-2,10.5-13.2,21.2-26.2,31.8-39.3,1.2-1.5,2.1-2.1,4-1.3a22,22,0,0,0,17.6,0c1.8-.8,2.8-.2,4,1.3,10.5,13,21.1,26,31.5,39.1,2.2,2.8,4.1,3.4,7.6,2.2q60-20.55,120.2-40.9c4.6-1.5,5-2.8,2.1-6.8C349.8,121.64,342.3,111.54,334.6,101.54ZM183,127.76,76.71,98.49l.91-.25C88.91,95,99.41,92,110,89.14l7.37-2.06,67.22-18.86L290,98.58Z"/>
</svg>
