<svg width="45" id="Layer_1" data-name="Layer 1" xmlns="http://www.w3.org/2000/svg"
     viewBox="0 0 512 512">
    <defs>
        <style>.cls-1 {
            fill: #333 !important;
            }

            .cls-2 {
            fill: #f0f0f0;
            }

            .cls-3 {
            fill: #0052b4;
            }

            .cls-4 {
            fill: #d80027;
            }
        </style>
    </defs>
    <title>stamp TH BLACK</title>
    <path class="cls-1 icon-stamp"
          d="M500.87,89A11.13,11.13,0,0,0,512,77.91V11.13A11.13,11.13,0,0,0,500.87,0H434.09A11.13,11.13,0,0,0,423,11.13a11.13,11.13,0,0,1-22.26,0A11.13,11.13,0,0,0,389.61,0H361.74a11.13,11.13,0,0,0-11.13,11.13h0a11.13,11.13,0,0,1-22.26,0A11.13,11.13,0,0,0,317.22,0h-39a11.13,11.13,0,0,0-11.13,11.13h0a11.13,11.13,0,0,1-22.26,0A11.13,11.13,0,0,0,233.74,0H200.35a11.13,11.13,0,0,0-11.13,11.13h0a11.13,11.13,0,0,1-22.26,0A11.13,11.13,0,0,0,155.83,0H122.44a11.13,11.13,0,0,0-11.13,11.13,11.13,11.13,0,1,1-22.26,0A11.14,11.14,0,0,0,77.91,0H11.13A11.13,11.13,0,0,0,0,11.13H0V77.91A11.13,11.13,0,0,0,11.13,89a11.13,11.13,0,0,1,0,22.26A11.13,11.13,0,0,0,0,122.39v33.43A11.13,11.13,0,0,0,11.08,167h.05a11.13,11.13,0,0,1,0,22.26A11.14,11.14,0,0,0,0,200.35v33.39a11.13,11.13,0,0,0,11.13,11.13h0a11.13,11.13,0,0,1,0,22.26A11.13,11.13,0,0,0,0,278.26H0v39a11.13,11.13,0,0,0,11.13,11.13h0a11.13,11.13,0,0,1,0,22.26A11.13,11.13,0,0,0,0,361.74v27.82a11.13,11.13,0,0,0,11.13,11.13h0a11.13,11.13,0,0,1,0,22.26A11.13,11.13,0,0,0,0,434.08v66.79A11.13,11.13,0,0,0,11.13,512H77.91A11.13,11.13,0,0,0,89,500.87a11.13,11.13,0,0,1,22.26,0A11.13,11.13,0,0,0,122.39,512h33.43A11.13,11.13,0,0,0,167,500.92v-.05a11.13,11.13,0,1,1,22.26,0v0A11.13,11.13,0,0,0,200.34,512h33.39a11.13,11.13,0,0,0,11.13-11.13h0a11.14,11.14,0,0,1,22.27,0A11.13,11.13,0,0,0,278.26,512h38.95a11.13,11.13,0,0,0,11.13-11.13h0a11.13,11.13,0,1,1,22.26,0A11.13,11.13,0,0,0,361.73,512h27.83a11.13,11.13,0,0,0,11.13-11.13h0a11.13,11.13,0,0,1,22.26,0A11.13,11.13,0,0,0,434.08,512h66.78A11.13,11.13,0,0,0,512,500.88h0V434.09A11.12,11.12,0,0,0,500.86,423a11.13,11.13,0,0,1,0-22.26A11.13,11.13,0,0,0,512,389.62V361.74a11.13,11.13,0,0,0-11.13-11.13h0a11.13,11.13,0,0,1,0-22.26A11.13,11.13,0,0,0,512,317.22v-39a11.13,11.13,0,0,0-11.13-11.13h0a11.13,11.13,0,0,1,0-22.26A11.13,11.13,0,0,0,512,233.74V200.35a11.13,11.13,0,0,0-11.13-11.13h0a11.13,11.13,0,0,1,0-22.26A11.13,11.13,0,0,0,512,155.83h0V122.44a11.13,11.13,0,0,0-11.13-11.13h0A11.14,11.14,0,1,1,500.2,89c.22,0,.45,0,.67,0ZM489.74,68.69a33.4,33.4,0,0,0,0,63V146.6a33.4,33.4,0,0,0,0,63v15a33.4,33.4,0,0,0,0,63V308a33.4,33.4,0,0,0,0,63v9.38a33.4,33.4,0,0,0,0,63V489.8H443.31a33.4,33.4,0,0,0-63,0H371a33.4,33.4,0,0,0-63,0H287.48a33.4,33.4,0,0,0-63,0H209.57a33.4,33.4,0,0,0-63,0H131.65a33.4,33.4,0,0,0-63,0H22.26V443.31a33.4,33.4,0,0,0,0-63V371a33.4,33.4,0,0,0,0-63V287.48a33.4,33.4,0,0,0,0-63V209.57a33.4,33.4,0,0,0,0-63V131.65a33.39,33.39,0,0,0,0-63V22.26H68.69a33.4,33.4,0,0,0,63,0H146.6a33.4,33.4,0,0,0,63,0h15a33.4,33.4,0,0,0,63,0H308a33.4,33.4,0,0,0,63,0h9.38a33.4,33.4,0,0,0,63,0H489.8V68.69Z"/>
    <path class="cls-1 icon-stamp"
          d="M434.09,66.78H77.91A11.15,11.15,0,0,0,66.78,77.91V322.84h0V434.09a11.15,11.15,0,0,0,11.13,11.13H434.09a11.15,11.15,0,0,0,11.13-11.13V77.91A11.15,11.15,0,0,0,434.09,66.78ZM423,100.46V423H89V89H423Z"/>
    <rect class="cls-2" x="89.04" y="144.7" width="333.91" height="222.6"/>
    <rect class="cls-3" x="89.04" y="215.6" width="333.91" height="80.79"/>
    <rect class="cls-4" x="89.04" y="144.7" width="333.91" height="35.56"/>
    <rect class="cls-4" x="89.04" y="331.75" width="333.91" height="35.56"/>
</svg>
