<svg id="Layer_1" data-name="Layer 1" xmlns="http://www.w3.org/2000/svg" viewBox="0 0 512 512"><title>stamp2</title><path d="M500.87,89A11.13,11.13,0,0,0,512,77.91V11.13A11.13,11.13,0,0,0,500.87,0H434.09A11.13,11.13,0,0,0,423,11.13a11.13,11.13,0,0,1-22.26,0A11.13,11.13,0,0,0,389.57,0H361.74a11.13,11.13,0,0,0-11.13,11.13,11.13,11.13,0,0,1-22.26,0A11.13,11.13,0,0,0,317.22,0h-39a11.13,11.13,0,0,0-11.13,11.13,11.13,11.13,0,0,1-22.26,0A11.13,11.13,0,0,0,233.74,0H200.35a11.13,11.13,0,0,0-11.13,11.13,11.13,11.13,0,0,1-22.26,0A11.13,11.13,0,0,0,155.83,0H122.44a11.13,11.13,0,0,0-11.13,11.13,11.13,11.13,0,1,1-22.26,0A11.14,11.14,0,0,0,77.91,0H11.13A11.13,11.13,0,0,0,0,11.13V77.91A11.13,11.13,0,0,0,11.13,89a11.13,11.13,0,1,1,0,22.26A11.13,11.13,0,0,0,0,122.43v33.39A11.13,11.13,0,0,0,11.13,167a11.13,11.13,0,0,1,0,22.26A11.14,11.14,0,0,0,0,200.35v33.39a11.13,11.13,0,0,0,11.13,11.13,11.13,11.13,0,0,1,0,22.26A11.13,11.13,0,0,0,0,278.26v39a11.13,11.13,0,0,0,11.13,11.13,11.13,11.13,0,0,1,0,22.26A11.13,11.13,0,0,0,0,361.74v27.82a11.13,11.13,0,0,0,11.13,11.13,11.13,11.13,0,0,1,0,22.26A11.13,11.13,0,0,0,0,434.08v66.79A11.13,11.13,0,0,0,11.13,512H77.91A11.13,11.13,0,0,0,89,500.87a11.13,11.13,0,0,1,22.26,0A11.13,11.13,0,0,0,122.43,512h33.39A11.13,11.13,0,0,0,167,500.87a11.13,11.13,0,1,1,22.26,0A11.13,11.13,0,0,0,200.34,512h33.39a11.13,11.13,0,0,0,11.13-11.13,11.14,11.14,0,0,1,22.27,0A11.13,11.13,0,0,0,278.26,512h38.95a11.13,11.13,0,0,0,11.13-11.13,11.13,11.13,0,1,1,22.26,0A11.13,11.13,0,0,0,361.73,512h27.83a11.13,11.13,0,0,0,11.13-11.13,11.13,11.13,0,0,1,22.26,0A11.13,11.13,0,0,0,434.08,512h66.78A11.13,11.13,0,0,0,512,500.87V434.09A11.13,11.13,0,0,0,500.86,423a11.13,11.13,0,0,1,0-22.26A11.13,11.13,0,0,0,512,389.57V361.74a11.13,11.13,0,0,0-11.13-11.13,11.13,11.13,0,0,1,0-22.26A11.13,11.13,0,0,0,512,317.22v-39a11.13,11.13,0,0,0-11.13-11.13,11.13,11.13,0,0,1,0-22.26A11.13,11.13,0,0,0,512,233.74V200.35a11.13,11.13,0,0,0-11.13-11.13,11.13,11.13,0,0,1,0-22.26A11.13,11.13,0,0,0,512,155.83V122.44a11.13,11.13,0,0,0-11.13-11.13,11.14,11.14,0,1,1,0-22.27ZM489.74,68.69a33.4,33.4,0,0,0,0,63V146.6a33.4,33.4,0,0,0,0,63v15a33.4,33.4,0,0,0,0,63V308a33.4,33.4,0,0,0,0,63v9.38a33.4,33.4,0,0,0,0,63v46.42H443.31a33.4,33.4,0,0,0-63,0H371a33.4,33.4,0,0,0-63,0H287.48a33.4,33.4,0,0,0-63,0H209.57a33.4,33.4,0,0,0-63,0H131.65a33.4,33.4,0,0,0-63,0H22.26V443.31a33.4,33.4,0,0,0,0-63V371a33.4,33.4,0,0,0,0-63V287.48a33.4,33.4,0,0,0,0-63V209.57a33.4,33.4,0,0,0,0-63V131.65a33.39,33.39,0,0,0,0-63V22.26H68.69a33.4,33.4,0,0,0,63,0H146.6a33.4,33.4,0,0,0,63,0h15a33.4,33.4,0,0,0,63,0H308a33.4,33.4,0,0,0,63,0h9.38a33.4,33.4,0,0,0,63,0h46.42V68.69Z"/><path d="M434.09,66.78H77.91A11.14,11.14,0,0,0,66.78,77.91V322.84h0V434.09a11.14,11.14,0,0,0,11.13,11.13H434.09a11.14,11.14,0,0,0,11.13-11.13V77.91A11.14,11.14,0,0,0,434.09,66.78ZM423,260.25V423H89V89H423Z"/><path d="M405.9,164.23A13.25,13.25,0,0,0,392.66,151H273.12V122.74a13.25,13.25,0,0,0-13.24-13.23h-109l-31.08.09A13.26,13.26,0,0,0,108,122.74v164.2a13.25,13.25,0,0,0,11.72,13.14V423h12.71V300.17h5.66V423h12.71V404h0V300.17h69.63v28.26a13.25,13.25,0,0,0,13.23,13.23h159a13.25,13.25,0,0,0,13.24-13.23V259.21h0Zm-132.78-.52H392.66a.52.52,0,0,1,.52.52v10.63H273.12Zm0,23.87H393.18v21H273.12ZM120.75,122.74a.51.51,0,0,1,.51-.52H259.88a.52.52,0,0,1,.53.52v10.64H120.75Zm0,23.35H260.41v21H120.75Zm0,33.76H260.41v50H120.75Zm0,62.69H260.41v21H120.75Zm.51,44.92a.51.51,0,0,1-.51-.52V276.3H260.41v10.64a.52.52,0,0,1-.53.52Zm271.92,41a.52.52,0,0,1-.52.52h-159a.52.52,0,0,1-.51-.52V317.79h160Zm0-23.35h-160v-4.91h26.7a13.25,13.25,0,0,0,13.24-13.23V284H393.18Zm0-33.77H273.12v-50H393.18v50Z"/></svg>