<svg height="512pt" viewBox="0 -128 512.00067 512" width="512pt" xmlns="http://www.w3.org/2000/svg">
    <path
        d="m508.800781 146.933594-85.335937-68.265625c-1.511719-1.210938-3.394532-1.867188-5.332032-1.867188h-34.132812v-8.535156h51.199219c32.976562-.035156 59.695312-26.757813 59.734375-59.730469 0-4.714844-3.820313-8.535156-8.535156-8.535156h-460.796876c-4.714843 0-8.535156 3.820312-8.535156 8.535156.039063 32.972656 26.757813 59.695313 59.734375 59.730469h51.199219v8.535156h-34.132812c-1.9375 0-3.820313.65625-5.332032 1.867188l-85.335937 68.265625c-2.023438 1.621094-3.199219 4.074218-3.199219 6.667968v59.730469c0 9.425781 7.640625 17.066407 17.066406 17.066407h25.601563v17.070312c0 4.710938 3.820312 8.53125 8.53125 8.53125h59.734375c4.710937 0 8.53125-3.820312 8.53125-8.53125v-17.070312h273.070312v17.070312c0 4.710938 3.820313 8.53125 8.53125 8.53125h59.734375c4.710938 0 8.53125-3.820312 8.53125-8.53125v-17.070312h25.601563c9.425781 0 17.066406-7.640626 17.066406-17.066407v-59.730469c0-2.59375-1.175781-5.046874-3.199219-6.667968zm-141.867187-70.132813h-8.535156v-8.535156h8.535156zm-196.265625 0v-8.535156h170.664062v8.535156zm-135.679688-59.734375h442.023438c-4.078125 19.855469-21.542969 34.109375-41.8125 34.132813h-358.398438c-20.269531-.023438-37.734375-14.277344-41.8125-34.132813zm110.078125 51.199219h8.535156v8.535156h-8.535156zm-42.667968 170.667969h-42.664063v-8.535156h42.667969v8.535156zm349.867187 0h-42.664063v-8.535156h42.664063zm42.667969-25.601563h-477.867188v-55.636719l79.796875-63.828124h318.292969l79.777344 63.828124zm0 0"/>
    <path
        d="m366.933594 110.933594h-221.867188c-9.425781 0-17.066406 7.640625-17.066406 17.066406v51.199219c0 9.425781 7.640625 17.070312 17.066406 17.070312h221.867188c9.425781 0 17.066406-7.644531 17.066406-17.070312v-51.199219c0-9.425781-7.640625-17.066406-17.066406-17.066406zm-221.867188 68.265625v-51.199219h221.867188v51.199219zm0 0"/>
    <path
        d="m264.53125 145.066406h-17.066406c-4.710938 0-8.53125 3.820313-8.53125 8.535156 0 4.710938 3.820312 8.53125 8.53125 8.53125h17.066406c4.714844 0 8.535156-3.820312 8.535156-8.53125 0-4.714843-3.820312-8.535156-8.535156-8.535156zm0 0"/>
    <path
        d="m307.199219 145.066406h-17.066407c-4.710937 0-8.535156 3.820313-8.535156 8.535156 0 4.710938 3.824219 8.53125 8.535156 8.53125h17.066407c4.714843 0 8.535156-3.820312 8.535156-8.53125 0-4.714843-3.820313-8.535156-8.535156-8.535156zm0 0"/>
    <path
        d="m221.867188 145.066406h-17.066407c-4.714843 0-8.535156 3.820313-8.535156 8.535156 0 4.710938 3.820313 8.53125 8.535156 8.53125h17.066407c4.710937 0 8.53125-3.820312 8.53125-8.53125 0-4.714843-3.820313-8.535156-8.53125-8.535156zm0 0"/>
</svg>
