<svg width="45" height="45" viewBox="0 0 45 45" fill="none" xmlns="http://www.w3.org/2000/svg">
<g clip-path="url(#clip0)">
<path d="M10.5469 19.6828C11.185 19.6828 11.7043 20.1175 11.7043 20.6519C11.7043 21.1373 12.0978 21.5308 12.5832 21.5308C13.0686 21.5308 13.4621 21.1373 13.4621 20.6519C13.4621 19.4347 12.605 18.4014 11.4258 18.0519V17.9297C11.4258 17.4444 11.0323 17.0508 10.5469 17.0508C10.0614 17.0508 9.66796 17.4444 9.66796 17.9297V18.0519C8.48873 18.4015 7.63162 19.4347 7.63162 20.6519C7.63162 22.1556 8.93935 23.3789 10.5469 23.3789C11.185 23.3789 11.7043 23.8136 11.7043 24.348C11.7043 24.8824 11.185 25.3172 10.5469 25.3172C9.90869 25.3172 9.38944 24.8824 9.38944 24.348C9.38944 23.8627 8.99595 23.4691 8.51053 23.4691C8.02511 23.4691 7.63162 23.8627 7.63162 24.348C7.63162 25.5652 8.48873 26.5985 9.66796 26.9481V27.0703C9.66796 27.5556 10.0614 27.9492 10.5469 27.9492C11.0323 27.9492 11.4258 27.5556 11.4258 27.0703V26.9481C12.605 26.5985 13.4621 25.5653 13.4621 24.3481C13.4621 22.8444 12.1544 21.6211 10.5469 21.6211C9.90869 21.6211 9.38944 21.1864 9.38944 20.652C9.38944 20.1176 9.90869 19.6828 10.5469 19.6828Z" fill="#333333"/>
<path d="M21.0938 22.5C21.0938 21.1642 20.8471 19.8619 20.3607 18.6296C20.1824 18.178 19.6721 17.9566 19.2204 18.1346C18.769 18.3128 18.5474 18.8234 18.7256 19.2749C19.1306 20.3009 19.3359 21.386 19.3359 22.5C19.3359 27.3464 15.3932 31.2891 10.5469 31.2891C5.70059 31.2891 1.75781 27.3463 1.75781 22.5C1.75781 17.6537 5.70059 13.7109 10.5469 13.7109C11.6542 13.7109 12.7332 13.914 13.7542 14.3142C14.206 14.4916 14.7161 14.2688 14.8932 13.8168C15.0705 13.3649 14.8478 12.855 14.3959 12.6778C13.1697 12.1969 11.8747 11.9531 10.5469 11.9531C4.73133 11.9531 0 16.6845 0 22.5C0 28.3155 4.73133 33.0469 10.5469 33.0469C16.3624 33.0469 21.0938 28.3155 21.0938 22.5Z" fill="#333333"/>
<path d="M34.4531 19.6828C35.0913 19.6828 35.6105 20.1175 35.6105 20.6519C35.6105 21.1373 36.004 21.5308 36.4894 21.5308C36.9748 21.5308 37.3683 21.1373 37.3683 20.6519C37.3683 19.4347 36.5112 18.4014 35.332 18.0519V17.9297C35.332 17.4444 34.9385 17.0508 34.4531 17.0508C33.9677 17.0508 33.5742 17.4444 33.5742 17.9297V18.0519C32.395 18.4015 31.5378 19.4347 31.5378 20.6519C31.5378 22.1556 32.8456 23.3789 34.4531 23.3789C35.0913 23.3789 35.6105 23.8136 35.6105 24.348C35.6105 24.8824 35.0913 25.3172 34.4531 25.3172C33.8149 25.3172 33.2957 24.8824 33.2957 24.348C33.2957 23.8627 32.9022 23.4691 32.4167 23.4691C31.9313 23.4691 31.5378 23.8627 31.5378 24.348C31.5378 25.5652 32.395 26.5985 33.5742 26.9481V27.0703C33.5742 27.5556 33.9677 27.9492 34.4531 27.9492C34.9385 27.9492 35.332 27.5556 35.332 27.0703V26.9481C36.5112 26.5985 37.3683 25.5653 37.3683 24.3481C37.3683 22.8444 36.0606 21.6211 34.4531 21.6211C33.8149 21.6211 33.2957 21.1864 33.2957 20.652C33.2957 20.1176 33.8149 19.6828 34.4531 19.6828Z" fill="#333333"/>
<path d="M34.4531 11.9531C28.6376 11.9531 23.9062 16.6845 23.9062 22.5C23.9062 28.3155 28.6376 33.0469 34.4531 33.0469C40.2687 33.0469 45 28.3155 45 22.5C45 16.6845 40.2687 11.9531 34.4531 11.9531ZM34.4531 31.2891C29.6068 31.2891 25.6641 27.3464 25.6641 22.5C25.6641 17.6536 29.6068 13.7109 34.4531 13.7109C39.2994 13.7109 43.2422 17.6536 43.2422 22.5C43.2422 27.3464 39.2994 31.2891 34.4531 31.2891Z" fill="#333333"/>
<path d="M30.0248 35.3814C29.6816 35.0382 29.1251 35.0382 28.7818 35.3814C28.4386 35.7246 28.4386 36.2811 28.7818 36.6244L29.1338 36.9764H13.7442C13.2588 36.9764 12.8653 37.37 12.8653 37.8553C12.8653 38.3406 13.2588 38.7342 13.7442 38.7342H29.1338L28.7818 39.0862C28.4386 39.4294 28.4386 39.986 28.7818 40.3293C28.9535 40.5008 29.1784 40.5867 29.4033 40.5867C29.6282 40.5867 29.8532 40.5008 30.0248 40.3293L31.8771 38.4769C32.2204 38.1337 32.2204 37.5771 31.8771 37.2338L30.0248 35.3814Z" fill="#333333"/>
<path d="M14.9752 9.61832C15.1468 9.78988 15.3717 9.87575 15.5967 9.87575C15.8216 9.87575 16.0466 9.78988 16.2181 9.61832C16.5613 9.27511 16.5613 8.71858 16.2181 8.37528L15.8661 8.02328H31.2558C31.7412 8.02328 32.1347 7.62971 32.1347 7.14437C32.1347 6.65904 31.7412 6.26547 31.2558 6.26547H15.8661L16.2181 5.91347C16.5613 5.57025 16.5613 5.01373 16.2181 4.67043C15.8749 4.3273 15.3184 4.3273 14.9751 4.67043L13.1227 6.52281C12.7795 6.86603 12.7795 7.42255 13.1227 7.76585L14.9752 9.61832Z" fill="#333333"/>
<path d="M16.7616 15.0417C16.5981 15.2052 16.5041 15.4319 16.5041 15.6631C16.5041 15.8942 16.5981 16.121 16.7616 16.2845C16.9251 16.4479 17.1518 16.542 17.383 16.542C17.6141 16.542 17.8409 16.448 18.0044 16.2845C18.1679 16.121 18.2619 15.8942 18.2619 15.6631C18.2619 15.4319 18.1679 15.2052 18.0044 15.0417C17.8409 14.8774 17.6141 14.7842 17.383 14.7842C17.1518 14.7842 16.9251 14.8774 16.7616 15.0417Z" fill="#333333"/>
</g>
<defs>
<clipPath id="clip0">
<rect width="45" height="45" fill="white"/>
</clipPath>
</defs>
</svg>
