<svg xmlns="http://www.w3.org/2000/svg" viewBox="0 0 56 66" width="64" height="64">
  <rect x="-8" y="-3" width="72" height="72" rx="14" fill="#1b1938"/>
  <g fill="#e9a41b">
    <path d="M44.3453 28.9961L40.7451 29.7864C42.691 35.6924 42.3156 42.1285 39.6968 47.7627C35.3147 57.1503 24.9695 57.9492 17.116 56.1603C9.26261 54.3714 5.40463 44.1414 5.40463 44.1414C5.79129 55.6566 9.06498 60.3548 9.06498 60.3548L13.0604 58.4356C17.9065 61.145 31.2591 63.594 40.7451 53.225C50.2311 42.8561 44.3453 28.9961 44.3453 28.9961Z" />
    <path d="M9.3829 32.4016C8.24137 35.1904 7.94332 38.2587 8.52642 41.2187C9.10951 44.1787 10.5476 46.8976 12.6589 49.0319C14.7703 51.1662 17.4602 52.6202 20.3888 53.2101C23.3174 53.7999 26.3533 53.4992 29.1129 52.346C31.8725 51.1928 34.2319 49.2388 35.8932 46.7308C37.5545 44.2229 38.443 41.2735 38.4464 38.2554C38.4499 35.2373 37.5682 32.2859 35.9127 29.774C34.2573 27.2622 31.9023 25.3026 29.1454 24.1429L28.6126 23.9518L43.4087 20.1481L38.9664 7.99023L8.70411 24.4902L5.40463 29.8744L11.952 28.1897C10.8765 29.4444 10.0089 30.8667 9.3829 32.4016ZM18.044 38.2113C18.044 37.3525 18.296 36.513 18.7681 35.7989C19.2401 35.0849 19.9111 34.5283 20.6961 34.1997C21.4811 33.8711 22.345 33.7851 23.1784 33.9526C24.0117 34.1202 24.7772 34.5337 25.3781 35.141C25.9789 35.7482 26.3881 36.5219 26.5538 37.3642C26.7196 38.2065 26.6345 39.0795 26.3094 39.8729C25.9842 40.6664 25.4335 41.3445 24.727 41.8216C24.0205 42.2987 23.1899 42.5534 22.3402 42.5534C21.2008 42.5534 20.108 42.0959 19.3023 41.2816C18.4966 40.4673 18.044 39.3629 18.044 38.2113ZM33.8712 38.2113C33.8757 39.5424 33.6201 40.8613 33.1189 42.0923C32.6178 43.3233 31.881 44.4421 30.9509 45.3846C30.0209 46.327 28.9157 47.0745 27.6991 47.5842C26.4824 48.0938 25.1781 48.3556 23.8611 48.3544C23.2059 48.3547 22.5524 48.2877 21.9106 48.1547C24.1814 47.7019 26.2262 46.4664 27.6959 44.6592C29.1656 42.8521 29.969 40.5853 29.969 38.246C29.969 35.9067 29.1656 33.64 27.6959 31.8328C26.2262 30.0257 24.1814 28.7902 21.9106 28.3373C22.5533 28.2115 23.2064 28.1475 23.8611 28.1463C26.5062 28.1463 29.0436 29.2053 30.9181 31.0916C32.7925 32.9779 33.8512 35.5379 33.8626 38.2113H33.8712Z" />
    <path d="M23.7063 8.88436L18.2931 11.8283L21.1887 7.46015L17.2104 5.21094L8.70398 20.8686L27.1088 10.8036L23.7063 8.88436Z" />
  </g>
</svg>
